<svg xmlns="http://www.w3.org/2000/svg" viewBox="0 0 32 32" width="32" height="32">
  <defs>
    <linearGradient id="starGradient" x1="0%" y1="0%" x2="100%" y2="100%">
      <stop offset="0%" style="stop-color:#4f46e5;stop-opacity:1" />
      <stop offset="50%" style="stop-color:#7c3aed;stop-opacity:1" />
      <stop offset="100%" style="stop-color:#c026d3;stop-opacity:1" />
    </linearGradient>
  </defs>

  <!-- Background circle -->
  <circle cx="16" cy="16" r="15" fill="#1a1a2e" stroke="#16213e" stroke-width="2"/>

  <!-- Large central star -->
  <path d="M16 4 L18.4 11.2 L26 11.2 L20.8 15.6 L23.2 22.8 L16 18.4 L8.8 22.8 L11.2 15.6 L6 11.2 L13.6 11.2 Z"
        fill="url(#starGradient)"
        stroke="#ffffff"
        stroke-width="0.5"/>

  <!-- Small top-left star -->
  <path d="M8 8 L8.8 10.4 L11.2 10.4 L9.4 11.8 L10.2 14.2 L8 12.8 L5.8 14.2 L6.6 11.8 L4.8 10.4 L7.2 10.4 Z"
        fill="#ffffff"
        opacity="0.8"/>

  <!-- Small bottom-right star -->
  <path d="M24 24 L24.8 26.4 L27.2 26.4 L25.4 27.8 L26.2 30.2 L24 28.8 L21.8 30.2 L22.6 27.8 L20.8 26.4 L23.2 26.4 Z"
        fill="#ffffff"
        opacity="0.6"/>

  <!-- Tiny accent stars -->
  <circle cx="6" cy="20" r="1" fill="#ffffff" opacity="0.5"/>
  <circle cx="26" cy="10" r="1" fill="#ffffff" opacity="0.5"/>
  <circle cx="12" cy="28" r="0.8" fill="#ffffff" opacity="0.4"/>
</svg>
