<?xml version="1.0" encoding="UTF-8"?>
<svg width="512" height="512" viewBox="0 0 512 512" xmlns="http://www.w3.org/2000/svg">
  <defs>
    <!-- Background gradient matching the app -->
    <radialGradient id="backgroundGradient" cx="50%" cy="50%" r="50%">
      <stop offset="0%" style="stop-color:#16213e;stop-opacity:1" />
      <stop offset="50%" style="stop-color:#1a1a2e;stop-opacity:1" />
      <stop offset="100%" style="stop-color:#0f0f1a;stop-opacity:1" />
    </radialGradient>
    
    <!-- Star glow effect -->
    <filter id="starGlow">
      <feGaussianBlur stdDeviation="3" result="coloredBlur"/>
      <feMerge>
        <feMergeNode in="coloredBlur"/>
        <feMergeNode in="SourceGraphic"/>
      </feMerge>
    </filter>
  </defs>
  
  <!-- Circular background -->
  <circle cx="256" cy="256" r="256" fill="url(#backgroundGradient)" />
  
  <!-- Orion Constellation -->
  <!-- Converting RA/Dec coordinates to SVG coordinates within the circle -->
  <!-- Scaling and positioning the constellation to fit nicely in the circle -->

  <!-- Constellation lines -->
  <g stroke="#32bff3" stroke-width="6" stroke-opacity="0.9" fill="none">
    <!-- Betelgeuse to Bellatrix -->
    <line x1="176" y1="88" x2="296" y2="105" />
    <!-- Bellatrix to Mintaka -->
    <line x1="307" y1="121" x2="279" y2="227" />
    <!-- Mintaka to Alnilam -->
    <line x1="266" y1="248" x2="266" y2="249" />
    <!-- Alnilam to Alnitak -->
    <line x1="243" y1="266" x2="244" y2="265" />
    <!-- Alnitak to Saiph -->
    <line x1="229" y1="287" x2="200" y2="415" />
    <!-- Saiph to Rigel -->
    <line x1="210" y1="426" x2="346" y2="401" />
    <!-- Rigel to Mintaka -->
    <line x1="355" y1="383" x2="282" y2="251" />
    <!-- Betelgeuse to Alnitak -->
    <line x1="166" y1="101" x2="227" y2="260" />
  </g>
  
  <!-- Constellation stars -->
  <g filter="url(#starGlow)">
    <!-- Betelgeuse (α Ori) - magnitude 0.5 -->
    <circle cx="160" cy="86" r="12" opacity="1.00" fill="#ffaa77" />
    <!-- Rigel (β Ori) - magnitude 0.1 -->
    <circle cx="363" cy="398" r="13" opacity="1.00" fill="#aabbff" />
    <!-- Bellatrix (γ Ori) - magnitude 1.6 -->
    <circle cx="310" cy="107" r="10" opacity="1.00" fill="#ffffff" />
    <!-- Mintaka (δ Ori) - magnitude 2.2 -->
    <circle cx="276" cy="240" r="9" opacity="1.00" fill="#ffffff" />
    <!-- Alnilam (ε Ori) - magnitude 1.7 -->
    <circle cx="255" cy="258" r="10" opacity="1.00" fill="#ffffff" />
    <!-- Alnitak (ζ Ori) - magnitude 1.8 -->
    <circle cx="232" cy="273" r="10" opacity="1.00" fill="#ffffff" />
    <!-- Saiph (κ Ori) - magnitude 2.1 -->
    <circle cx="197" cy="428" r="9" opacity="1.00" fill="#ffffff" />
  </g>
  
  <!-- Additional decorative stars for ambiance -->
  <g fill="#ffffff" opacity="0.3">
    <circle cx="100" cy="200" r="1" />
    <circle cx="450" cy="150" r="1.2" />
    <circle cx="80" cy="400" r="1" />
    <circle cx="420" cy="50" r="1.1" />
    <circle cx="50" cy="300" r="0.8" />
    <circle cx="480" cy="350" r="1.3" />
    <circle cx="120" cy="50" r="0.9" />
    <circle cx="400" cy="480" r="1" />
  </g>
</svg>
